<svg width="512" height="512" viewBox="0 0 512 512" fill="none" xmlns="http://www.w3.org/2000/svg">
  <rect width="512" height="512" rx="64" fill="#0f172a"/>
  <path d="M256 64C167.634 64 96 135.634 96 224C96 312.366 167.634 384 256 384C344.366 384 416 312.366 416 224C416 135.634 344.366 64 256 64Z" fill="#1e293b" stroke="#3b82f6" stroke-width="10"/>
  <path d="M256 112L320 176L256 240L192 176L256 112Z" fill="#3b82f6"/>
  <path d="M256 176L288 208L256 240L224 208L256 176Z" fill="#60a5fa"/>
  <path d="M256 240V336" stroke="#3b82f6" stroke-width="16" stroke-linecap="round"/>
  <path d="M216 296L256 336L296 296" stroke="#3b82f6" stroke-width="16" stroke-linecap="round" stroke-linejoin="round"/>
  <text x="256" y="448" font-family="system-ui, sans-serif" font-size="48" font-weight="700" fill="white" text-anchor="middle">VISITASEGURA</text>
</svg>
